Coordinates
version=1
nRows=5
nColumns=40
inDegrees=yes

Units are S.I. units (second, meters, Newtons, ...)
Angles are in degrees.

endheader
time	pelvis_tilt	pelvis_list	pelvis_rotation	pelvis_tx	pelvis_ty	pelvis_tz	hip_flexion_r	hip_adduction_r	hip_rotation_r	knee_angle_r	knee_angle_r_beta	ankle_angle_r	subtalar_angle_r	mtp_angle_r	hip_flexion_l	hip_adduction_l	hip_rotation_l	knee_angle_l	knee_angle_l_beta	ankle_angle_l	subtalar_angle_l	mtp_angle_l	lumbar_extension	lumbar_bending	lumbar_rotation	arm_flex_r	arm_add_r	arm_rot_r	elbow_flex_r	pro_sup_r	wrist_flex_r	wrist_dev_r	arm_flex_l	arm_add_l	arm_rot_l	elbow_flex_l	pro_sup_l	wrist_flex_l	wrist_dev_l
     43.53478571	     -4.86416655	     -4.67268725	     10.31069733	      0.97594564	      0.92114408	      0.49180076	      2.34147368	      5.86191372	    -18.30880228	     11.58674410	     11.58674410	     16.78951592	     -1.09907300	     -3.20999809	     28.32332610	     -6.76961231	      0.49562680	     16.83468615	     16.83468615	      2.20870745	     -3.94720371	     -1.36532943	     -8.08012683	      3.58324673	      4.14032076	     47.56551738	    -19.04110857	    -12.42673863	     72.70228044	     44.96444691	      0.00000000	      0.00000000	    -14.80199650	     -7.91523082	      5.74753568	     29.38174953	     45.11218160	      0.00000000	      0.00000000
     43.55457143	     -5.08816974	     -4.69163519	     10.52653424	      0.97602633	      0.92033996	      0.48908650	      2.03342956	      5.78542105	    -18.37835707	     11.41372437	     11.41372437	     17.07318528	     -1.14890640	     -3.24994969	     28.26156508	     -6.58608443	      0.41784086	     17.08219802	     17.08219802	      1.89978581	     -3.99313833	     -1.37251987	     -7.78483349	      3.40899647	      4.13316871	     47.97966962	    -19.01912350	    -12.42591599	     72.86785399	     44.96142754	      0.00000000	      0.00000000	    -14.30556965	     -7.99910183	      5.70946605	     29.56111001	     45.12664960	      0.00000000	      0.00000000
     43.57435714	     -5.13297361	     -4.81832944	     10.71883927	      0.97625722	      0.91976318	      0.48630573	      1.27803686	      5.92891378	    -18.59046773	     10.68662557	     10.68662557	     17.07827435	     -0.70285382	     -3.06164411	     28.31282610	     -6.53563336	      0.63966212	     17.85573025	     17.85573025	      1.54616982	     -4.48692272	     -2.20027353	     -7.80691697	      3.35241779	      4.21829728	     48.48331438	    -19.05644894	    -12.69947995	     73.47061425	     44.96160668	      0.00000000	      0.00000000	    -13.48836344	     -8.11484858	      5.29735679	     30.07099402	     45.20916906	      0.00000000	      0.00000000
     43.59414286	     -5.24011329	     -4.76161646	     10.83416937	      0.97639915	      0.91927909	      0.48329187	      0.87423969	      5.74246587	    -18.64273938	     10.59809056	     10.59809056	     17.23762500	     -0.67031508	     -3.00499306	     28.29542922	     -6.30201186	      0.73093270	     18.48271043	     18.48271043	      1.39811202	     -4.85107168	     -2.56022994	     -7.78931149	      3.12711934	      4.28748672	     48.82770281	    -19.05535856	    -12.81272269	     73.70811528	     44.96344877	      0.00000000	      0.00000000	    -12.57440510	     -8.25495904	      5.01607542	     30.52819075	     45.26862707	      0.00000000	      0.00000000
     43.61392857	     -5.37405370	     -4.77303203	     10.94297329	      0.97649372	      0.91882774	      0.48012701	      0.56988690	      5.59546169	    -18.73045511	     10.60707602	     10.60707602	     17.37655108	     -0.65980900	     -2.87507423	     28.39017452	     -6.09067080	      1.02683766	     19.20684170	     19.20684170	      1.36507559	     -5.42804706	     -2.90403821	     -7.74975514	      2.98943548	      4.45215977	     48.97231330	    -19.14114835	    -13.01862356	     73.85533171	     44.97302124	      0.00000000	      0.00000000	    -11.50026265	     -8.33091417	      4.49986094	     31.22206679	     45.36517497	      0.00000000	      0.00000000
